HIERARCHY
ROOT Hips
{
  OFFSET 5.84602e-005 68.8428 3.50346
  CHANNELS 6 Xposition Yposition Zposition Zrotation Xrotation Yrotation
  JOINT Spine
  {
    OFFSET 0 8.597 -4.6522
    CHANNELS 3 Zrotation Xrotation Yrotation
    JOINT Spine1
    {
      OFFSET 0 7.8454 0.4098
      CHANNELS 3 Zrotation Xrotation Yrotation
      JOINT Spine2
      {
        OFFSET 0 9.7078 -2.1609
        CHANNELS 3 Zrotation Xrotation Yrotation
        JOINT Neck
        {
          OFFSET 0 21.8761 -0.4549
          CHANNELS 3 Zrotation Xrotation Yrotation
          JOINT Head
          {
            OFFSET 0 12.3537 3.3602
            CHANNELS 3 Zrotation Xrotation Yrotation
            End Site
            {
              OFFSET 0.0001 18.9506 0.5657
            }
          }
        }
        JOINT LeftShoulder
        {
          OFFSET 2.2086 21.1115 7.2329
          CHANNELS 3 Zrotation Xrotation Yrotation
          JOINT LeftArm
          {
            OFFSET 13.1193 3.0282 -4.8998
            CHANNELS 3 Zrotation Xrotation Yrotation
            JOINT LeftForeArm
            {
              OFFSET 27.4081 -0.0973053 -0.2375
              CHANNELS 3 Zrotation Xrotation Yrotation
              JOINT LeftHand
              {
                OFFSET 22.8641 0.0662994 -0.1369
                CHANNELS 3 Zrotation Xrotation Yrotation
                JOINT LeftHandIndex1
                {
                  OFFSET 8.8614 0.775009 2.4612
                  CHANNELS 3 Zrotation Xrotation Yrotation
                  JOINT LeftHandIndex2
                  {
                    OFFSET 3.3146 -0.808304 0.5841
                    CHANNELS 3 Zrotation Xrotation Yrotation
                    JOINT LeftHandIndex3
                    {
                      OFFSET 2.2628 -0.552002 0.3989
                      CHANNELS 3 Zrotation Xrotation Yrotation
                      End Site
                      {
                        OFFSET 1.6102 -0.4807 0.2612
                      }
                    }
                  }
                }
                JOINT LeftHandMiddle1
                {
                  OFFSET 8.9937 0.895004 0.2143
                  CHANNELS 3 Zrotation Xrotation Yrotation
                  JOINT LeftHandMiddle2
                  {
                    OFFSET 4.0984 0.0113983 -0.0242
                    CHANNELS 3 Zrotation Xrotation Yrotation
                    JOINT LeftHandMiddle3
                    {
                      OFFSET 2.2716 0.00689697 -0.0138001
                      CHANNELS 3 Zrotation Xrotation Yrotation
                      End Site
                      {
                        OFFSET 2.0404 -0.1441 0.0027
                      }
                    }
                  }
                }
                JOINT LeftHandRing1
                {
                  OFFSET 8.5234 0.597198 -2.0164
                  CHANNELS 3 Zrotation Xrotation Yrotation
                  JOINT LeftHandRing2
                  {
                    OFFSET 3.7188 -0.188293 -0.2328
                    CHANNELS 3 Zrotation Xrotation Yrotation
                    JOINT LeftHandRing3
                    {
                      OFFSET 2.1191 -0.106598 -0.1332
                      CHANNELS 3 Zrotation Xrotation Yrotation
                      End Site
                      {
                        OFFSET 1.8737 -0.2304 -0.0886
                      }
                    }
                  }
                }
                JOINT LeftHandPinky1
                {
                  OFFSET 7.9094 -0.601089 -3.4825
                  CHANNELS 3 Zrotation Xrotation Yrotation
                  JOINT LeftHandPinky2
                  {
                    OFFSET 2.2874 -0.477005 -0.6314
                    CHANNELS 3 Zrotation Xrotation Yrotation
                    JOINT LeftHandPinky3
                    {
                      OFFSET 1.6774 -0.349396 -0.4633
                      CHANNELS 3 Zrotation Xrotation Yrotation
                      End Site
                      {
                        OFFSET 1.4888 -0.4091 -0.3416
                      }
                    }
                  }
                }
                JOINT LeftHandThumb1
                {
                  OFFSET 1.833 -1.3875 1.3896
                  CHANNELS 3 Zrotation Xrotation Yrotation
                  JOINT LeftHandThumb2
                  {
                    OFFSET 3.4129 -1.121 2.5732
                    CHANNELS 3 Zrotation Xrotation Yrotation
                    JOINT LeftHandThumb3
                    {
                      OFFSET 2.2474 -0.804199 1.6192
                      CHANNELS 3 Zrotation Xrotation Yrotation
                      End Site
                      {
                        OFFSET 1.6527 -0.5689 1.1317
                      }
                    }
                  }
                }
              }
            }
          }
        }
        JOINT RightShoulder
        {
          OFFSET -2.2086 21.1115 7.2329
          CHANNELS 3 Zrotation Xrotation Yrotation
          JOINT RightArm
          {
            OFFSET -13.1216 3.0287 -4.9007
            CHANNELS 3 Zrotation Xrotation Yrotation
            JOINT RightForeArm
            {
              OFFSET -27.4081 -0.0973053 -0.2375
              CHANNELS 3 Zrotation Xrotation Yrotation
              JOINT RightHand
              {
                OFFSET -22.8641 0.0664063 -0.1369
                CHANNELS 3 Zrotation Xrotation Yrotation
                JOINT RightHandIndex1
                {
                  OFFSET -8.8614 0.774994 2.4612
                  CHANNELS 3 Zrotation Xrotation Yrotation
                  JOINT RightHandIndex2
                  {
                    OFFSET -3.3146 -0.808304 0.5841
                    CHANNELS 3 Zrotation Xrotation Yrotation
                    JOINT RightHandIndex3
                    {
                      OFFSET -2.2628 -0.552002 0.3989
                      CHANNELS 3 Zrotation Xrotation Yrotation
                      End Site
                      {
                        OFFSET -1.6102 -0.4807 0.2612
                      }
                    }
                  }
                }
                JOINT RightHandMiddle1
                {
                  OFFSET -8.9937 0.894989 0.2143
                  CHANNELS 3 Zrotation Xrotation Yrotation
                  JOINT RightHandMiddle2
                  {
                    OFFSET -4.0984 0.0113983 -0.0242
                    CHANNELS 3 Zrotation Xrotation Yrotation
                    JOINT RightHandMiddle3
                    {
                      OFFSET -2.2716 0.00691223 -0.0138001
                      CHANNELS 3 Zrotation Xrotation Yrotation
                      End Site
                      {
                        OFFSET -2.0404 -0.1441 0.0027
                      }
                    }
                  }
                }
                JOINT RightHandRing1
                {
                  OFFSET -8.5234 0.597198 -2.0164
                  CHANNELS 3 Zrotation Xrotation Yrotation
                  JOINT RightHandRing2
                  {
                    OFFSET -3.7188 -0.188309 -0.2328
                    CHANNELS 3 Zrotation Xrotation Yrotation
                    JOINT RightHandRing3
                    {
                      OFFSET -2.1191 -0.106598 -0.1332
                      CHANNELS 3 Zrotation Xrotation Yrotation
                      End Site
                      {
                        OFFSET -1.8737 -0.2304 -0.0886
                      }
                    }
                  }
                }
                JOINT RightHandPinky1
                {
                  OFFSET -7.9094 -0.601105 -3.4825
                  CHANNELS 3 Zrotation Xrotation Yrotation
                  JOINT RightHandPinky2
                  {
                    OFFSET -2.2874 -0.477005 -0.6314
                    CHANNELS 3 Zrotation Xrotation Yrotation
                    JOINT RightHandPinky3
                    {
                      OFFSET -1.6774 -0.349396 -0.4633
                      CHANNELS 3 Zrotation Xrotation Yrotation
                      End Site
                      {
                        OFFSET -1.4888 -0.4091 -0.3416
                      }
                    }
                  }
                }
                JOINT RightHandThumb1
                {
                  OFFSET -1.833 -1.38751 1.3896
                  CHANNELS 3 Zrotation Xrotation Yrotation
                  JOINT RightHandThumb2
                  {
                    OFFSET -3.41299 -1.12099 2.5732
                    CHANNELS 3 Zrotation Xrotation Yrotation
                    JOINT RightHandThumb3
                    {
                      OFFSET -2.24741 -0.804108 1.6192
                      CHANNELS 3 Zrotation Xrotation Yrotation
                      End Site
                      {
                        OFFSET -1.6527 -0.5689 1.1317
                      }
                    }
                  }
                }
              }
            }
          }
        }
      }
    }
  }
  JOINT RightUpLeg
  {
    OFFSET -9.1966 3.8861 -0.7581
    CHANNELS 3 Zrotation Xrotation Yrotation
    JOINT RightLeg
    {
      OFFSET -0.7359 -41.0265 0
      CHANNELS 3 Zrotation Xrotation Yrotation
      JOINT RightFoot
      {
        OFFSET 0 -40.2855 0
        CHANNELS 3 Zrotation Xrotation Yrotation
        JOINT RightToeBase
        {
          OFFSET 0 -5.6122 11.7359
          CHANNELS 3 Zrotation Xrotation Yrotation
          End Site
          {
            OFFSET 0 0 7.8731
          }
        }
      }
    }
  }
  JOINT LeftUpLeg
  {
    OFFSET 9.1965 3.8864 -0.7581
    CHANNELS 3 Zrotation Xrotation Yrotation
    JOINT LeftLeg
    {
      OFFSET 0.7359 -41.0268 0
      CHANNELS 3 Zrotation Xrotation Yrotation
      JOINT LeftFoot
      {
        OFFSET 0 -40.2855 0
        CHANNELS 3 Zrotation Xrotation Yrotation
        JOINT LeftToeBase
        {
          OFFSET 0 -5.6122 11.7359
          CHANNELS 3 Zrotation Xrotation Yrotation
          End Site
          {
            OFFSET 0 0 7.8731
          }
        }
      }
    }
  }
}
MOTION
Frames:	4
Frame Time:	0.0333333
0.677462 70.77 17.5537 -5.98088e-015 8.39755 180 -0.491453 4.54964 -0.228056 -0.969278 9.10103 -0.418804 -0.969279 9.10103 -0.418804 24.7432 -13.6529 5.20622 11.3452 -14.1297 -25.1969 -16.1513 -20.6543 -26.2978 -16.5354 -18.2772 -49.79 -29.0459 16.2789 -58.9309 -24.2322 -17.8037 11.3493 1.35155e-006 -5.34827e-007 -6.70535e-007 -2.7031e-007 1.06965e-007 1.34107e-007 1.35155e-006 -5.34827e-007 -6.70535e-007 1.35155e-006 -5.34827e-007 -6.70535e-007 -0.0146504 -8.76367e-005 -4.53983e-006 1.35155e-006 -5.34741e-007 -6.70605e-007 1.35155e-006 -5.34827e-007 -6.70535e-007 -0.0187479 -0.00117761 5.84242e-005 1.35155e-006 -5.34718e-007 -6.70637e-007 1.35155e-006 -5.34827e-007 -6.70535e-007 -0.0122094 -0.00323354 0.000673695 1.35153e-006 -5.34763e-007 -6.7063e-007 1.35155e-006 -5.34827e-007 -6.70535e-007 -2.7031e-007 1.06965e-007 1.34107e-007 1.35155e-006 -5.34827e-007 -6.70535e-007 1.78879 -4.22248 0.575627 67.804 7.12388 28.9242 19.9115 5.08393 21.8028 -0.248563 0.803863 2.84702 -8.78937e-007 -1.08586e-006 7.02757e-007 -1.59028e-015 -3.18055e-015 -0 -3.10316e-007 -5.39807e-007 5.77449e-007 -8.78937e-007 -1.08586e-006 7.02757e-007 0.0149625 -9.02859e-005 3.34776e-006 -3.10327e-007 -5.39732e-007 5.7752e-007 -8.78937e-007 -1.08586e-006 7.02757e-007 0.0189793 -0.00118665 -6.29115e-005 -3.10324e-007 -5.39711e-007 5.77542e-007 -8.78937e-007 -1.08586e-006 7.02757e-007 0.0122978 -0.00325873 -0.000679716 -3.10306e-007 -5.39744e-007 5.77516e-007 -8.78937e-007 -1.08586e-006 7.02757e-007 -1.59028e-015 -3.18055e-015 -0 -3.10316e-007 -5.39807e-007 5.77449e-007 177.975 -21.0301 177.737 0.0883607 27.9635 -0.44475 -7.6092 -5.02125 -0.78668 4.54902e-007 5.77374e-009 -2.17284e-008 -2.2722 8.75976 0.661637 -3.63213 11.5327 1.32494 10.7457 2.00691 0.22172 -4.26553e-007 2.06375e-009 -2.55383e-008 
0.67775 70.7363 17.6457 -6.03106e-015 7.99615 180 -0.491485 4.45615 -0.22916 -0.969448 8.91408 -0.421759 -0.969448 8.91408 -0.421758 24.7932 -14.09 5.41394 11.36 -14.4203 -25.1367 -16.171 -20.5626 -26.1352 -16.5325 -18.2794 -49.7765 -29.1006 16.366 -59.1148 -24.1323 -17.8278 11.4887 -1.08077e-006 4.28525e-007 5.36846e-007 -3.60255e-007 1.42842e-007 1.78949e-007 -9.00638e-008 3.57104e-008 4.47372e-008 -1.08077e-006 4.28525e-007 5.36846e-007 -0.0145427 -8.96999e-005 -2.33186e-006 -9.0064e-008 3.57047e-008 4.47418e-008 -1.08077e-006 4.28525e-007 5.36846e-007 -0.0188675 -0.00118551 5.88201e-005 -9.00635e-008 3.5703e-008 4.4744e-008 -1.08077e-006 4.28525e-007 5.36846e-007 -0.0122875 -0.00325348 0.000674714 -9.00625e-008 3.57061e-008 4.47436e-008 -1.08077e-006 4.28525e-007 5.36846e-007 -3.60255e-007 1.42842e-007 1.78949e-007 -9.00638e-008 3.57104e-008 4.47372e-008 1.78448 -4.07025 0.532153 67.804 7.12387 28.9242 19.9646 5.10742 21.8641 -0.302141 0.8514 2.89373 1.242e-006 2.15897e-006 -2.3096e-006 6.20999e-007 1.07948e-006 -1.1548e-006 3.10499e-007 5.39741e-007 -5.77401e-007 1.242e-006 2.15897e-006 -2.3096e-006 0.0150128 -8.98575e-005 -3.95104e-006 -2.59697e-007 -7.33085e-009 -4.5448e-007 1.242e-006 2.15897e-006 -2.3096e-006 0.0190242 -0.00119276 -5.44844e-005 3.10508e-007 5.39645e-007 -5.77494e-007 1.242e-006 2.15897e-006 -2.3096e-006 0.0122187 -0.00323128 -0.000675757 3.10489e-007 5.39679e-007 -5.77468e-007 1.242e-006 2.15897e-006 -2.3096e-006 6.20999e-007 1.07948e-006 -1.1548e-006 3.10499e-007 5.39741e-007 -5.77401e-007 178.013 -20.8674 177.781 0.181783 27.5554 -0.47996 -7.64958 -4.85194 -0.768195 3.89649e-007 -4.12926e-009 1.81251e-007 -2.29389 8.20715 0.663959 -3.58613 11.7427 1.31923 10.7319 1.86496 0.242001 1.292e-008 -4.63599e-009 -1.05835e-007 
0.678043 70.7029 17.7379 -6.08113e-015 7.59479 180 -0.49148 4.36267 -0.230262 -0.96955 8.72715 -0.424712 -0.96955 8.72715 -0.424712 24.8441 -14.5269 5.62238 11.3752 -14.7109 -25.0764 -16.191 -20.4709 -25.9727 -16.5296 -18.2816 -49.763 -29.155 16.4531 -59.2986 -24.0322 -17.8517 11.6282 -3.80338e-007 -2.42551e-007 -1.93351e-006 -1.91387e-006 4.55628e-008 -3.37679e-006 1.53041e-006 -6.08015e-007 -7.61123e-007 -3.80338e-007 -2.42551e-007 -1.93351e-006 -0.0146623 -8.87571e-005 2.67466e-007 1.53041e-006 -6.07917e-007 -7.61202e-007 -3.80338e-007 -2.42551e-007 -1.93351e-006 -0.0187672 -0.0011777 5.93742e-005 1.53041e-006 -6.07891e-007 -7.61238e-007 -3.80338e-007 -2.42551e-007 -1.93351e-006 -0.0123249 -0.00326546 0.000682459 6.11529e-007 -6.35271e-007 -2.42618e-006 -3.80338e-007 -2.42551e-007 -1.93351e-006 -1.91387e-006 4.55628e-008 -3.37679e-006 1.53041e-006 -6.08015e-007 -7.61123e-007 1.78037 -3.91804 0.488698 67.804 7.12388 28.9242 20.0177 5.13096 21.9253 -0.355808 0.898897 2.94046 -1.59028e-015 -3.18055e-015 -1.90833e-014 1.59028e-015 -3.18055e-015 -6.36111e-015 4.77083e-015 -3.18055e-015 -9.54166e-015 -1.59028e-015 -3.18055e-015 -1.90833e-014 0.0149976 -9.20612e-005 -3.77503e-006 -1.59028e-015 -3.18055e-015 9.54166e-015 -1.59028e-015 -3.18055e-015 -1.90833e-014 0.0189915 -0.00119018 -6.13314e-005 -1.59028e-015 6.36111e-015 -3.18055e-015 -1.59028e-015 -3.18055e-015 -1.90833e-014 0.0122328 -0.00323704 -0.000676277 -6.36111e-015 0 -3.18055e-015 -1.59028e-015 -3.18055e-015 -1.90833e-014 1.59028e-015 -3.18055e-015 -6.36111e-015 4.77083e-015 -3.18055e-015 -9.54166e-015 178.05 -20.6717 177.824 0.272798 27.18 -0.514692 -7.68942 -4.68248 -0.749559 3.8965e-007 -4.13137e-009 1.8125e-007 -2.31559 7.65547 0.666056 -3.54004 11.951 1.31322 10.7182 1.72392 0.262161 -2.62678e-007 -4.55425e-008 5.56239e-008 
0.678339 70.6699 17.8302 -6.13111e-015 7.19345 180 -0.491482 4.26919 -0.231364 -0.969675 8.54023 -0.427666 -0.969676 8.54023 -0.427666 24.8973 -14.9631 5.83148 11.3908 -15.0014 -25.0159 -16.2112 -20.3793 -25.8102 -16.5267 -18.2839 -49.7495 -29.2091 16.5405 -59.4824 -23.9321 -17.8753 11.7678 -1.73656e-006 3.02289e-007 -1.26808e-006 -7.48475e-007 1.87315e-007 -3.57646e-007 -6.29893e-007 2.50744e-007 3.13647e-007 -1.73656e-006 3.02289e-007 -1.26808e-006 -0.0145458 -9.22702e-005 1.08385e-005 -6.29894e-007 2.50704e-007 3.13679e-007 -1.73656e-006 3.02289e-007 -1.26808e-006 -0.0188115 -0.00117774 5.36414e-005 -6.29891e-007 2.50693e-007 3.13694e-007 -1.73656e-006 3.02289e-007 -1.26808e-006 -0.0123148 -0.00326741 0.000684572 -6.29883e-007 2.50714e-007 3.13692e-007 -1.73656e-006 3.02289e-007 -1.26808e-006 -7.48475e-007 1.87315e-007 -3.57646e-007 -6.29893e-007 2.50744e-007 3.13647e-007 1.77647 -3.76584 0.445263 67.8039 7.12387 28.9242 20.0708 5.15455 21.9865 -0.409515 0.946354 2.98725 -6.2173e-007 -1.07921e-006 1.15462e-006 -1.24346e-006 -2.15843e-006 2.30923e-006 -3.10865e-007 -5.39607e-007 5.77308e-007 -6.2173e-007 -1.07921e-006 1.15462e-006 0.014968 -8.89775e-005 3.46432e-007 2.59805e-007 9.32833e-009 4.592e-007 -6.2173e-007 -1.07921e-006 1.15462e-006 0.0190165 -0.00119675 -5.8537e-005 -3.10873e-007 -5.3951e-007 5.77401e-007 -6.2173e-007 -1.07921e-006 1.15462e-006 0.0122613 -0.0032474 -0.000675981 -3.10855e-007 -5.39544e-007 5.77375e-007 -6.2173e-007 -1.07921e-006 1.15462e-006 -1.24346e-006 -2.15843e-006 2.30923e-006 -3.10865e-007 -5.39607e-007 5.77308e-007 178.086 -20.4825 177.867 0.362118 26.798 -0.548117 -7.72879 -4.5129 -0.730778 1.30554e-006 -6.48307e-006 -2.80546e-007 -2.3373 7.10403 0.667941 -3.49388 12.1589 1.30703 10.7046 1.58301 0.282272 -2.48481e-017 4.77083e-015 -5.96354e-016 
